<svg width="80" height="80" viewBox="0 0 80 80" fill="none" xmlns="http://www.w3.org/2000/svg">
<g id="book">
<path id="Vector" d="M73.3337 55.8001V15.5667C73.3337 11.5667 70.067 8.60006 66.1003 8.93339H65.9003C58.9003 9.53339 48.267 13.1001 42.3337 16.8334L41.767 17.2001C40.8003 17.8001 39.2003 17.8001 38.2337 17.2001L37.4003 16.7001C31.467 13.0001 20.867 9.46673 13.867 8.90006C9.90032 8.56673 6.66699 11.5667 6.66699 15.5334V55.8001C6.66699 59.0001 9.26699 62.0001 12.467 62.4001L13.4337 62.5334C20.667 63.5001 31.8337 67.1667 38.2337 70.6667L38.367 70.7334C39.267 71.2334 40.7003 71.2334 41.567 70.7334C47.967 67.2001 59.167 63.5001 66.4337 62.5334L67.5337 62.4001C70.7337 62.0001 73.3337 59.0001 73.3337 55.8001Z" stroke="#4A691B" stroke-width="5" stroke-linecap="round" stroke-linejoin="round"/>
<path id="Vector_2" d="M40 18.3V68.3001" stroke="#4A691B" stroke-width="5" stroke-linecap="round" stroke-linejoin="round"/>
<path id="Vector_3" d="M25.833 28.3H18.333" stroke="#4A691B" stroke-width="5" stroke-linecap="round" stroke-linejoin="round"/>
<path id="Vector_4" d="M28.333 38.3H18.333" stroke="#4A691B" stroke-width="5" stroke-linecap="round" stroke-linejoin="round"/>
</g>
</svg>
