<svg width="24" height="24" viewBox="0 0 24 24" fill="none" xmlns="http://www.w3.org/2000/svg">
<g id="icon.viber">
<g id="Viber shape">
<path d="M14.9374 9.66937C14.9455 9.83682 14.8163 9.97913 14.6488 9.98722C14.4814 9.99531 14.3391 9.86613 14.331 9.69868C14.2808 8.66129 13.7989 8.16361 12.8028 8.11069C12.6354 8.1018 12.5069 7.95888 12.5158 7.79147C12.5247 7.62406 12.6676 7.49555 12.835 7.50445C14.1458 7.57408 14.8723 8.32437 14.9374 9.66937Z" fill="#424242"/>
<path d="M16.1832 10.5097C16.3508 10.5135 16.4897 10.3808 16.4935 10.2132C16.5205 9.02668 16.1652 8.02491 15.4269 7.22053C14.6872 6.41472 13.6671 5.96853 12.3758 5.87684C12.2086 5.86497 12.0634 5.99091 12.0515 6.15813C12.0397 6.32536 12.1656 6.47054 12.3328 6.48242C13.4766 6.56363 14.3508 6.94599 14.9796 7.63106C15.609 8.31673 15.9101 9.1657 15.8866 10.1994C15.8828 10.367 16.0156 10.5059 16.1832 10.5097Z" fill="#424242"/>
<path d="M18.0891 10.8271C18.0904 10.9947 17.9555 11.1316 17.7879 11.1329C17.6202 11.1341 17.4833 10.9993 17.4821 10.8316C17.4682 8.98439 16.9231 7.5485 15.8485 6.49786C14.7703 5.44698 13.4299 4.91596 11.8193 4.90566C11.6517 4.90458 11.5167 4.76781 11.5177 4.60017C11.5188 4.43253 11.6556 4.2975 11.8232 4.29857C13.5882 4.30986 15.0796 4.90074 16.2726 6.06344C17.4699 7.23405 18.0742 8.82572 18.0891 10.8271Z" fill="#424242"/>
<path d="M13.5357 13.5018C13.3088 13.7863 12.8802 13.7503 12.8802 13.7503C9.76115 12.9543 8.92557 9.79568 8.92557 9.79568C8.92557 9.79568 8.88955 9.37068 9.17408 9.14018L9.73594 8.69357C10.0169 8.47748 10.1933 7.95524 9.90881 7.44381C9.75034 7.15928 9.4334 6.65144 9.19929 6.3309C8.95078 5.99234 8.37452 5.30083 8.37092 5.29723C8.09359 4.96588 7.683 4.89024 7.25081 5.11354C7.25081 5.11354 7.2472 5.11715 7.2436 5.11715C6.83302 5.34765 6.45124 5.65739 6.09468 6.04997L6.08748 6.05717C5.82096 6.37772 5.66609 6.69466 5.63007 7.00441C5.62287 7.04042 5.61926 7.08724 5.62287 7.14127C5.61926 7.27813 5.64087 7.41139 5.68409 7.54465L5.6985 7.55546C5.83176 8.03447 6.17031 8.83044 6.90145 10.1594C7.37686 11.0202 7.86308 11.7406 8.3457 12.3456C8.59782 12.6662 8.88595 12.9939 9.2173 13.3289L9.34696 13.4585C9.68191 13.7899 10.0097 14.078 10.3302 14.3301C10.9353 14.8128 11.652 15.299 12.5164 15.7744C13.8454 16.5055 14.6414 16.8441 15.1204 16.9773L15.1312 16.9917C15.2645 17.035 15.3977 17.053 15.5346 17.053C15.5886 17.0566 15.6354 17.053 15.6714 17.0458C15.9812 17.0098 16.2981 16.8549 16.6187 16.5884L16.6259 16.5812C17.0184 16.2246 17.3282 15.8392 17.5587 15.4322C17.5587 15.4322 17.5623 15.4286 17.5623 15.425C17.7856 14.9928 17.71 14.5823 17.3786 14.3049C17.3786 14.3049 16.6835 13.7251 16.3449 13.4765C16.028 13.2424 15.5166 12.9291 15.232 12.767C14.7206 12.4825 14.1984 12.659 13.9823 12.9399L13.5357 13.5018Z" fill="#424242"/>
<path fill-rule="evenodd" clip-rule="evenodd" d="M12.4264 0.0172273C17.7928 0.0424387 20.2023 1.79283 20.8002 2.34028C22.7775 4.05827 23.876 7.8688 23.1376 13.8871C22.4881 19.2047 18.7791 20.148 17.5348 20.4645C17.413 20.4955 17.3147 20.5205 17.2453 20.543C16.9104 20.651 13.9462 21.393 10.0961 21.0688C9.67111 21.5622 9.10565 22.2105 8.69866 22.6499C8.57571 22.7824 8.46059 22.9132 8.35058 23.0382C7.79355 23.671 7.3674 24.1552 6.71776 23.9537C6.07307 23.7556 6.10909 22.776 6.10909 22.776L6.11269 20.3593H6.10909C0.476124 18.7746 0.558962 12.9363 0.623791 9.81729C0.685019 6.69827 1.29009 4.18432 3.00808 2.46634C6.09468 -0.364547 12.4264 0.0172273 12.4264 0.0172273ZM16.8958 18.7811C17.9533 18.5357 20.9067 17.8503 21.4521 13.4549C22.0751 8.42705 21.2216 4.99469 19.5504 3.55764C19.0462 3.10023 16.8708 1.73521 12.3291 1.7136C12.3291 1.7136 6.95187 1.36064 4.34068 3.72331C2.88922 5.15676 2.3994 7.28893 2.34537 9.89292L2.33949 10.1582C2.27853 12.8211 2.17111 17.5144 6.77539 18.7926C6.77539 18.7926 6.75738 22.4842 6.75378 22.8084C6.75378 23.0353 6.78979 23.1902 6.91945 23.2226C7.0131 23.2478 7.15356 23.1974 7.27241 23.0785C8.03236 22.3114 10.4707 19.3724 10.4707 19.3724C13.741 19.5885 16.3413 18.9402 16.6223 18.8502C16.6869 18.8296 16.78 18.808 16.8958 18.7811Z" fill="#424242"/>
</g>
</g>
</svg>
