<svg width="99" height="99" viewBox="0 0 99 99" fill="none" xmlns="http://www.w3.org/2000/svg">
<path d="M40.2585 73.6782L52.3103 78.7311C53.9433 79.6739 57.0136 79.5414 58.9455 79.0238L71.1805 75.7454C75.0442 74.7102 78.4535 70.6908 78.3841 66.5683L79.8136 40.9936C80.2156 36.0545 76.2826 32.9673 71.453 34.2614L58.5739 37.7123C56.6421 38.23 54.6008 37.0514 54.3189 34.7113L53.1681 23.9768C53.0355 20.9064 50.241 18.2043 47.0844 18.0149C44.2497 17.7391 41.3751 19.8897 40.6048 22.1667L32.6665 45.3444" stroke="#E3276F" stroke-width="5" stroke-miterlimit="10"/>
<path d="M23.8381 78.0778L15.3833 46.5243C14.1755 42.0166 15.676 39.8891 20.1836 38.6813L23.4034 37.8185C27.9111 36.6107 30.2743 37.703 31.4821 42.2106L39.9368 73.7642C41.1447 78.2718 39.6442 80.3994 35.1365 81.6072L31.9168 82.4699C27.4091 83.6777 25.0459 82.5855 23.8381 78.0778Z" stroke="#E3276F" stroke-width="5" stroke-linecap="round" stroke-linejoin="round"/>
</svg>
