<svg width="229" height="80" viewBox="0 0 229 80" fill="none" xmlns="http://www.w3.org/2000/svg">
<g clip-path="url(#clip0_438_5451)">
<mask id="mask0_438_5451" style="mask-type:luminance" maskUnits="userSpaceOnUse" x="0" y="-75" width="229" height="230">
<path d="M0 -74.2863H228.571V154.285H0V-74.2863Z" fill="white"/>
</mask>
<g mask="url(#mask0_438_5451)">
<path fill-rule="evenodd" clip-rule="evenodd" d="M215.199 43.7858H118.268C114.041 43.7858 110.202 45.5106 107.42 48.2922C104.637 51.0748 102.913 54.9131 102.913 59.1406H99.7324C99.7324 54.0361 101.814 49.4019 105.171 46.044C108.528 42.6869 113.163 40.6057 118.268 40.6057H215.199V43.7858Z" fill="#FAFAFA"/>
<path fill-rule="evenodd" clip-rule="evenodd" d="M215.429 50.0957H118.267C115.782 50.0957 113.521 51.1136 111.881 52.754C110.241 54.3939 109.224 56.6544 109.224 59.1406H106.044C106.044 55.7766 107.418 52.7198 109.633 50.5054C111.848 48.291 114.904 46.9156 118.267 46.9156H215.429V50.0957Z" fill="#FAFAFA"/>
<path fill-rule="evenodd" clip-rule="evenodd" d="M13.2031 40.6057H84.3745C89.4802 40.6057 94.1148 42.6861 97.4715 46.044C100.829 49.4019 102.911 54.0357 102.911 59.1406H99.7305C99.7305 54.9134 98.0049 51.0752 95.223 48.2925C92.4411 45.5106 88.6021 43.7858 84.3745 43.7858H13.2031V40.6057Z" fill="#FAFAFA"/>
<path fill-rule="evenodd" clip-rule="evenodd" d="M13.2031 46.9168H84.3745C87.7385 46.9168 90.7954 48.2914 93.0094 50.5066C95.2238 52.7209 96.5988 55.7778 96.5988 59.1406H93.4191C93.4191 56.6548 92.4012 54.3955 90.7612 52.7551C89.1216 51.1152 86.8608 50.0969 84.3745 50.0969H13.2031V46.9168Z" fill="#FAFAFA"/>
<path fill-rule="evenodd" clip-rule="evenodd" d="M93.416 61.432H109.167V64.6133H93.416V61.432Z" fill="#FAFAFA"/>
<path d="M18.5659 64.9531C17.793 64.9531 17.0757 64.8253 16.4141 64.5691C15.7521 64.3134 15.1773 63.9513 14.6897 63.4825C14.202 63.014 13.8227 62.4611 13.5523 61.8237C13.2816 61.1859 13.1465 60.4906 13.1465 59.7368C13.1465 58.9835 13.2816 58.2881 13.5523 57.6503C13.8227 57.0129 14.2043 56.46 14.697 55.9911C15.1896 55.5227 15.7644 55.1606 16.4214 54.9045C17.078 54.6488 17.798 54.5205 18.5805 54.5205C19.411 54.5205 20.169 54.6633 20.8552 54.9479C21.541 55.2332 22.1204 55.6559 22.5938 56.2158L21.377 57.3608C21.0095 56.9645 20.5991 56.6677 20.1452 56.4696C19.691 56.2718 19.1983 56.1724 18.6673 56.1724C18.1359 56.1724 17.6505 56.2592 17.2112 56.4335C16.7712 56.6074 16.3899 56.8535 16.0662 57.1722C15.7425 57.4909 15.4914 57.868 15.3129 58.3027C15.1339 58.7373 15.0449 59.2154 15.0449 59.7368C15.0449 60.2583 15.1339 60.7371 15.3129 61.1714C15.4914 61.606 15.7425 61.9831 16.0662 62.3018C16.3899 62.6205 16.7712 62.8666 17.2112 63.0409C17.6505 63.2145 18.1359 63.3013 18.6673 63.3013C19.1983 63.3013 19.691 63.2022 20.1452 63.0044C20.5991 62.8063 21.0095 62.5045 21.377 62.0987L22.5938 63.2579C22.1204 63.8089 21.541 64.2286 20.8552 64.5185C20.169 64.8084 19.4061 64.9531 18.5659 64.9531Z" fill="#FAFAFA"/>
<path d="M26.142 58.8819H31.1843V60.4324H26.142V58.8819ZM26.2867 63.2289H32.0103V64.8086H24.4033V54.6655H31.8075V56.2452H26.2867V63.2289Z" fill="#FAFAFA"/>
<path d="M34.1133 64.8086V54.6659H35.6638L42.0247 62.4759H41.2568V54.6659H43.126V64.8086H41.5755L35.2145 56.9985H35.9825V64.8086H34.1133Z" fill="#FAFAFA"/>
<path d="M47.9105 64.8086V56.2594H44.5488V54.6659H53.156V56.2594H49.7943V64.8086H47.9105Z" fill="#FAFAFA"/>
<path d="M61.2075 64.8086L58.6426 61.1282H60.6569L63.2361 64.8086H61.2075ZM56.4551 61.2008L55.6146 60.3023H58.6572C59.4877 60.3023 60.1136 60.1237 60.5337 59.7662C60.9537 59.4087 61.1641 58.9115 61.1641 58.2737C61.1641 57.6267 60.9537 57.1291 60.5337 56.7812C60.1136 56.4333 59.4877 56.2594 58.6572 56.2594H55.6146L56.4551 55.3321V61.2008ZM54.5713 64.8086V54.6659H58.744C59.6425 54.6659 60.4127 54.8106 61.0555 55.1005C61.6975 55.3904 62.1928 55.8059 62.5407 56.3465C62.8882 56.8876 63.0621 57.53 63.0621 58.2737C63.0621 59.0179 62.8882 59.6576 62.5407 60.1936C62.1928 60.7296 61.6975 61.1405 61.0555 61.425C60.4127 61.7103 59.6425 61.8528 58.744 61.8528H55.6146L56.4551 60.9976V64.8086H54.5713Z" fill="#FAFAFA"/>
<path d="M69.5265 64.9531C68.1353 64.9531 67.0464 64.5619 66.2592 63.7793C65.4717 62.9972 65.0781 61.8671 65.0781 60.3888V54.6657H66.9619V60.3166C66.9619 61.3599 67.1865 62.1182 67.6358 62.5917C68.0847 63.0647 68.7197 63.3013 69.5411 63.3013C70.362 63.3013 70.9948 63.0647 71.4391 62.5917C71.8833 62.1182 72.1056 61.3599 72.1056 60.3166V54.6657H73.9602V60.3888C73.9602 61.8671 73.5667 62.9972 72.7795 63.7793C71.992 64.5619 70.9076 64.9531 69.5265 64.9531Z" fill="#FAFAFA"/>
<path d="M76.5967 64.8086V54.6659H78.1472L82.5809 62.0701H81.7696L86.1308 54.6659H87.6813L87.6959 64.8086H85.9135L85.8993 57.4624H86.2759L82.5663 63.6494H81.7258L77.9586 57.4624H78.3933V64.8086H76.5967Z" fill="#FAFAFA"/>
<path d="M116.521 58.8819H121.563V60.4324H116.521V58.8819ZM116.666 63.2289H122.389V64.8086H114.782V54.6655H122.186V56.2452H116.666V63.2289Z" fill="#FAFAFA"/>
<path d="M126.377 63.2147H128.84C129.603 63.2147 130.262 63.07 130.818 62.7801C131.374 62.4901 131.803 62.0847 132.108 61.5628C132.412 61.0414 132.564 60.4328 132.564 59.737C132.564 59.0321 132.412 58.4215 132.108 57.9043C131.803 57.3875 131.374 56.9839 130.818 56.6948C130.262 56.4049 129.603 56.2598 128.84 56.2598H126.377V63.2147ZM124.493 64.8086V54.6659H128.927C130.029 54.6659 130.994 54.8786 131.825 55.3033C132.656 55.7287 133.303 56.3177 133.767 57.0711C134.23 57.8248 134.462 58.7134 134.462 59.737C134.462 60.7515 134.23 61.6381 133.767 62.3961C133.303 63.1548 132.656 63.7461 131.825 64.1712C130.994 64.5966 130.029 64.8086 128.927 64.8086H124.493Z" fill="#FAFAFA"/>
<path d="M140.822 64.9531C139.431 64.9531 138.341 64.5619 137.554 63.7793C136.767 62.9972 136.373 61.8671 136.373 60.3888V54.6657H138.257V60.3166C138.257 61.3599 138.481 62.1182 138.931 62.5917C139.38 63.0647 140.015 63.3013 140.836 63.3013C141.657 63.3013 142.29 63.0647 142.734 62.5917C143.179 62.1182 143.401 61.3599 143.401 60.3166V54.6657H145.256V60.3888C145.256 61.8671 144.862 62.9972 144.075 63.7793C143.287 64.5619 142.203 64.9531 140.822 64.9531Z" fill="#FAFAFA"/>
<path d="M154.962 64.8086L151.079 60.1863L152.325 58.8097L157.164 64.8086H154.962ZM149.572 62.4176L149.47 60.1863L154.788 54.6659H156.904L152.484 59.3607L151.441 60.505L149.572 62.4176ZM147.891 54.6659H149.774V64.8086H147.891V54.6659Z" fill="#FAFAFA"/>
<path d="M158.686 62.4614L159.193 60.9834H164.67L165.177 62.4614H158.686ZM156.585 64.8086L161.149 54.6659H163.004L167.583 64.8086H165.612L161.686 55.6658H162.439L158.527 64.8086H156.585Z" fill="#FAFAFA"/>
<path d="M173.422 64.9531C172.649 64.9531 171.932 64.8253 171.27 64.5691C170.609 64.3134 170.034 63.9513 169.546 63.4825C169.058 63.014 168.679 62.4611 168.408 61.8237C168.138 61.1859 168.003 60.4906 168.003 59.7368C168.003 58.9835 168.138 58.2881 168.408 57.6503C168.679 57.0129 169.061 56.46 169.553 55.9911C170.046 55.5227 170.62 55.1606 171.277 54.9045C171.934 54.6488 172.654 54.5205 173.437 54.5205C174.267 54.5205 175.025 54.6633 175.712 54.9479C176.397 55.2332 176.977 55.6559 177.45 56.2158L176.233 57.3608C175.866 56.9645 175.456 56.6677 175.001 56.4696C174.547 56.2718 174.054 56.1724 173.524 56.1724C172.992 56.1724 172.507 56.2592 172.067 56.4335C171.628 56.6074 171.246 56.8535 170.923 57.1722C170.599 57.4909 170.348 57.868 170.169 58.3027C169.99 58.7373 169.901 59.2154 169.901 59.7368C169.901 60.2583 169.99 60.7371 170.169 61.1714C170.348 61.606 170.599 61.9831 170.923 62.3018C171.246 62.6205 171.628 62.8666 172.067 63.0409C172.507 63.2145 172.992 63.3013 173.524 63.3013C174.054 63.3013 174.547 63.2022 175.001 63.0044C175.456 62.8063 175.866 62.5045 176.233 62.0987L177.45 63.2579C176.977 63.8089 176.397 64.2286 175.712 64.5185C175.025 64.8084 174.262 64.9531 173.422 64.9531Z" fill="#FAFAFA"/>
<path d="M181.608 64.8086V60.7949L182.028 61.9541L177.623 54.6659H179.637L183.173 60.5342H182.043L185.607 54.6659H187.462L183.057 61.9541L183.491 60.7949V64.8086H181.608Z" fill="#FAFAFA"/>
<path d="M190.128 64.9531C189.481 64.9531 188.885 64.8276 188.339 64.5768C187.793 64.3253 187.347 63.9632 186.999 63.4898L188.071 62.2C188.351 62.5867 188.658 62.8766 188.991 63.0697C189.324 63.2632 189.689 63.3596 190.085 63.3596C191.138 63.3596 191.664 62.7364 191.664 61.49V56.2449H188.056V54.6657H193.548V61.3891C193.548 62.5867 193.256 63.4802 192.671 64.0692C192.087 64.6586 191.239 64.9531 190.128 64.9531Z" fill="#FAFAFA"/>
<path d="M196.185 64.8086V54.6659H197.735L204.096 62.4759H203.328V54.6659H205.198V64.8086H203.647L197.286 56.9985H198.054V64.8086H196.185Z" fill="#FAFAFA"/>
<path d="M209.658 58.8819H214.7V60.4324H209.658V58.8819ZM209.803 63.2289H215.526V64.8086H207.919V54.6655H215.323V56.2452H209.803V63.2289Z" fill="#FAFAFA"/>
<path d="M24.208 36.543C22.6153 36.543 21.1373 36.2792 19.7746 35.752C18.4107 35.2248 17.2266 34.4783 16.2217 33.5126C15.2164 32.5477 14.4351 31.4077 13.8779 30.0945C13.3208 28.7805 13.042 27.3475 13.042 25.7951C13.042 24.2427 13.3208 22.8097 13.8779 21.4957C14.4351 20.1825 15.2214 19.0433 16.2367 18.0776C17.2515 17.1123 18.4357 16.3658 19.7892 15.8382C21.1427 15.3114 22.6256 15.0473 24.238 15.0473C25.9493 15.0473 27.5117 15.341 28.9251 15.9281C30.3382 16.5152 31.5323 17.386 32.5076 18.5403L29.9999 20.8987C29.2431 20.0831 28.3976 19.471 27.4622 19.0629C26.5264 18.6551 25.5116 18.4508 24.4169 18.4508C23.3222 18.4508 22.3219 18.6297 21.4165 18.988C20.5107 19.3462 19.7247 19.8539 19.0577 20.5108C18.3908 21.1674 17.8736 21.9438 17.5053 22.8397C17.1367 23.7351 16.9532 24.7204 16.9532 25.7951C16.9532 26.8699 17.1367 27.8551 17.5053 28.751C17.8736 29.6464 18.3908 30.4228 19.0577 31.0794C19.7247 31.7364 20.5107 32.244 21.4165 32.6022C22.3219 32.9605 23.3222 33.1394 24.4169 33.1394C25.5116 33.1394 26.5264 32.9355 27.4622 32.5274C28.3976 32.1196 29.2431 31.4975 29.9999 30.6616L32.5076 33.0499C31.5323 34.1846 30.3382 35.0501 28.9251 35.6472C27.5117 36.2446 25.9397 36.543 24.208 36.543Z" fill="#FAFAFA"/>
<path d="M50.9282 15.3455H54.8095V36.2441H50.9282V15.3455ZM51.2266 27.2875H39.7922V23.9738H51.2266V27.2875ZM40.1205 36.2441H36.2393V15.3455H40.1205V36.2441Z" fill="#FAFAFA"/>
<path d="M70.1848 33.1394C71.2396 33.1394 72.2152 32.9605 73.1107 32.6022C74.0065 32.2436 74.7825 31.7314 75.4395 31.0644C76.0965 30.3978 76.6083 29.6214 76.9769 28.7356C77.3448 27.8505 77.5291 26.8699 77.5291 25.7951C77.5291 24.7204 77.3448 23.7401 76.9769 22.8542C76.6083 21.9688 76.0965 21.1928 75.4395 20.5254C74.7825 19.8588 74.0065 19.3462 73.1107 18.988C72.2152 18.6297 71.2396 18.4508 70.1848 18.4508C69.1296 18.4508 68.1593 18.6297 67.2739 18.988C66.388 19.3462 65.612 19.8588 64.945 20.5254C64.2781 21.1928 63.7609 21.9688 63.393 22.8542C63.0244 23.7401 62.8405 24.7204 62.8405 25.7951C62.8405 26.8503 63.0244 27.8252 63.393 28.721C63.7609 29.6164 64.2735 30.3978 64.9301 31.0644C65.5871 31.7314 66.3635 32.2436 67.2589 32.6022C68.1547 32.9605 69.1296 33.1394 70.1848 33.1394ZM70.2147 36.543C68.5824 36.543 67.08 36.2742 65.7065 35.737C64.3334 35.1994 63.1388 34.4484 62.124 33.4827C61.1087 32.5178 60.3224 31.3831 59.7652 30.0791C59.2081 28.7759 58.9297 27.3475 58.9297 25.7951C58.9297 24.2427 59.2081 22.8147 59.7652 21.5107C60.3224 20.2075 61.1087 19.0728 62.124 18.1072C63.1388 17.1422 64.3334 16.3904 65.7065 15.8532C67.08 15.316 68.5728 15.0472 70.1848 15.0472C71.8167 15.0472 73.3146 15.316 74.6781 15.8532C76.0412 16.3904 77.2307 17.1422 78.246 18.1072C79.2608 19.0728 80.0472 20.2075 80.6043 21.5107C81.1615 22.8147 81.4403 24.2427 81.4403 25.7951C81.4403 27.3475 81.1615 28.7805 80.6043 30.0941C80.0472 31.4077 79.2608 32.5423 78.246 33.4977C77.2307 34.453 76.0412 35.1994 74.6781 35.737C73.3146 36.2742 71.827 36.543 70.2147 36.543Z" fill="#FAFAFA"/>
<path d="M89.8299 36.2461L82.9033 15.3475H86.9339L93.114 34.246H91.1135L97.5324 15.3475H101.115L107.355 34.246H105.414L111.744 15.3475H115.446L108.519 36.2461H104.399L98.697 19.1987H99.7717L93.9799 36.2461H89.8299Z" fill="#FAFAFA"/>
<path d="M119.33 31.4095L120.375 28.3642H131.661L132.705 31.4095H119.33ZM115.001 36.2461L124.406 15.3475H128.227L137.661 36.2461H133.601L125.51 17.4075H127.063L119.002 36.2461H115.001Z" fill="#FAFAFA"/>
<path d="M140.313 36.2461V15.3475H143.508L156.614 31.4395H155.032V15.3475H158.883V36.2461H155.689L142.582 20.1541H144.165V36.2461H140.313Z" fill="#FAFAFA"/>
<path d="M164.497 15.3455H168.378V36.2441H164.497V15.3455Z" fill="#FAFAFA"/>
<path d="M175.394 31.4095L176.439 28.3642H187.725L188.769 31.4095H175.394ZM171.065 36.2461L180.47 15.3475H184.291L193.725 36.2461H189.665L181.574 17.4075H183.127L175.066 36.2461H171.065Z" fill="#FAFAFA"/>
<path d="M210.954 36.2441L202.953 26.7204L205.521 23.884L215.492 36.2441H210.954ZM199.848 31.3181L199.639 26.7204L210.596 15.3455H214.955L205.849 25.0186L203.699 27.377L199.848 31.3181ZM196.385 15.3455H200.266V36.2441H196.385V15.3455Z" fill="#FAFAFA"/>
</g>
<mask id="mask1_438_5451" style="mask-type:luminance" maskUnits="userSpaceOnUse" x="0" y="-75" width="229" height="230">
<path d="M0 -74.2863H228.571V154.285H0V-74.2863Z" fill="white"/>
</mask>
<g mask="url(#mask1_438_5451)">
<path fill-rule="evenodd" clip-rule="evenodd" d="M215.199 43.7858H118.268C114.041 43.7858 110.202 45.5106 107.42 48.2922C104.637 51.0748 102.913 54.9131 102.913 59.1406H99.7324C99.7324 54.0361 101.814 49.4019 105.171 46.044C108.528 42.6869 113.163 40.6057 118.268 40.6057H215.199V43.7858Z" fill="#FAFAFA"/>
<path fill-rule="evenodd" clip-rule="evenodd" d="M215.429 50.0957H118.267C115.782 50.0957 113.521 51.1136 111.881 52.754C110.241 54.3939 109.224 56.6544 109.224 59.1406H106.044C106.044 55.7766 107.418 52.7198 109.633 50.5054C111.848 48.291 114.904 46.9156 118.267 46.9156H215.429V50.0957Z" fill="#FAFAFA"/>
<path fill-rule="evenodd" clip-rule="evenodd" d="M13.2031 40.6057H84.3745C89.4802 40.6057 94.1148 42.6861 97.4715 46.044C100.829 49.4019 102.911 54.0357 102.911 59.1406H99.7305C99.7305 54.9134 98.0049 51.0752 95.223 48.2925C92.4411 45.5106 88.6021 43.7858 84.3745 43.7858H13.2031V40.6057Z" fill="#FAFAFA"/>
<path fill-rule="evenodd" clip-rule="evenodd" d="M13.2031 46.9168H84.3745C87.7385 46.9168 90.7954 48.2914 93.0094 50.5066C95.2238 52.7209 96.5988 55.7778 96.5988 59.1406H93.4191C93.4191 56.6548 92.4012 54.3955 90.7612 52.7551C89.1216 51.1152 86.8608 50.0969 84.3745 50.0969H13.2031V46.9168Z" fill="#FAFAFA"/>
<path fill-rule="evenodd" clip-rule="evenodd" d="M93.416 61.432H109.167V64.6133H93.416V61.432Z" fill="#FAFAFA"/>
<path d="M18.5659 64.9531C17.793 64.9531 17.0757 64.8253 16.4141 64.5691C15.7521 64.3134 15.1773 63.9513 14.6897 63.4825C14.202 63.014 13.8227 62.4611 13.5523 61.8237C13.2816 61.1859 13.1465 60.4906 13.1465 59.7368C13.1465 58.9835 13.2816 58.2881 13.5523 57.6503C13.8227 57.0129 14.2043 56.46 14.697 55.9911C15.1896 55.5227 15.7644 55.1606 16.4214 54.9045C17.078 54.6488 17.798 54.5205 18.5805 54.5205C19.411 54.5205 20.169 54.6633 20.8552 54.9479C21.541 55.2332 22.1204 55.6559 22.5938 56.2158L21.377 57.3608C21.0095 56.9645 20.5991 56.6677 20.1452 56.4696C19.691 56.2718 19.1983 56.1724 18.6673 56.1724C18.1359 56.1724 17.6505 56.2592 17.2112 56.4335C16.7712 56.6074 16.3899 56.8535 16.0662 57.1722C15.7425 57.4909 15.4914 57.868 15.3129 58.3027C15.1339 58.7373 15.0449 59.2154 15.0449 59.7368C15.0449 60.2583 15.1339 60.7371 15.3129 61.1714C15.4914 61.606 15.7425 61.9831 16.0662 62.3018C16.3899 62.6205 16.7712 62.8666 17.2112 63.0409C17.6505 63.2145 18.1359 63.3013 18.6673 63.3013C19.1983 63.3013 19.691 63.2022 20.1452 63.0044C20.5991 62.8063 21.0095 62.5045 21.377 62.0987L22.5938 63.2579C22.1204 63.8089 21.541 64.2286 20.8552 64.5185C20.169 64.8084 19.4061 64.9531 18.5659 64.9531Z" fill="#FAFAFA"/>
<path d="M26.142 58.8819H31.1843V60.4324H26.142V58.8819ZM26.2867 63.2289H32.0103V64.8086H24.4033V54.6655H31.8075V56.2452H26.2867V63.2289Z" fill="#FAFAFA"/>
<path d="M34.1133 64.8086V54.6659H35.6638L42.0247 62.4759H41.2568V54.6659H43.126V64.8086H41.5755L35.2145 56.9985H35.9825V64.8086H34.1133Z" fill="#FAFAFA"/>
<path d="M47.9105 64.8086V56.2594H44.5488V54.6659H53.156V56.2594H49.7943V64.8086H47.9105Z" fill="#FAFAFA"/>
<path d="M61.2075 64.8086L58.6426 61.1282H60.6569L63.2361 64.8086H61.2075ZM56.4551 61.2008L55.6146 60.3023H58.6572C59.4877 60.3023 60.1136 60.1237 60.5337 59.7662C60.9537 59.4087 61.1641 58.9115 61.1641 58.2737C61.1641 57.6267 60.9537 57.1291 60.5337 56.7812C60.1136 56.4333 59.4877 56.2594 58.6572 56.2594H55.6146L56.4551 55.3321V61.2008ZM54.5713 64.8086V54.6659H58.744C59.6425 54.6659 60.4127 54.8106 61.0555 55.1005C61.6975 55.3904 62.1928 55.8059 62.5407 56.3465C62.8882 56.8876 63.0621 57.53 63.0621 58.2737C63.0621 59.0179 62.8882 59.6576 62.5407 60.1936C62.1928 60.7296 61.6975 61.1405 61.0555 61.425C60.4127 61.7103 59.6425 61.8528 58.744 61.8528H55.6146L56.4551 60.9976V64.8086H54.5713Z" fill="#FAFAFA"/>
<path d="M69.5265 64.9531C68.1353 64.9531 67.0464 64.5619 66.2592 63.7793C65.4717 62.9972 65.0781 61.8671 65.0781 60.3888V54.6657H66.9619V60.3166C66.9619 61.3599 67.1865 62.1182 67.6358 62.5917C68.0847 63.0647 68.7197 63.3013 69.5411 63.3013C70.362 63.3013 70.9948 63.0647 71.4391 62.5917C71.8833 62.1182 72.1056 61.3599 72.1056 60.3166V54.6657H73.9602V60.3888C73.9602 61.8671 73.5667 62.9972 72.7795 63.7793C71.992 64.5619 70.9076 64.9531 69.5265 64.9531Z" fill="#FAFAFA"/>
<path d="M76.5967 64.8086V54.6659H78.1472L82.5809 62.0701H81.7696L86.1308 54.6659H87.6813L87.6959 64.8086H85.9135L85.8993 57.4624H86.2759L82.5663 63.6494H81.7258L77.9586 57.4624H78.3933V64.8086H76.5967Z" fill="#FAFAFA"/>
<path d="M116.521 58.8819H121.563V60.4324H116.521V58.8819ZM116.666 63.2289H122.389V64.8086H114.782V54.6655H122.186V56.2452H116.666V63.2289Z" fill="#FAFAFA"/>
<path d="M126.377 63.2147H128.84C129.603 63.2147 130.262 63.07 130.818 62.7801C131.374 62.4901 131.803 62.0847 132.108 61.5628C132.412 61.0414 132.564 60.4328 132.564 59.737C132.564 59.0321 132.412 58.4215 132.108 57.9043C131.803 57.3875 131.374 56.9839 130.818 56.6948C130.262 56.4049 129.603 56.2598 128.84 56.2598H126.377V63.2147ZM124.493 64.8086V54.6659H128.927C130.029 54.6659 130.994 54.8786 131.825 55.3033C132.656 55.7287 133.303 56.3177 133.767 57.0711C134.23 57.8248 134.462 58.7134 134.462 59.737C134.462 60.7515 134.23 61.6381 133.767 62.3961C133.303 63.1548 132.656 63.7461 131.825 64.1712C130.994 64.5966 130.029 64.8086 128.927 64.8086H124.493Z" fill="#FAFAFA"/>
<path d="M140.822 64.9531C139.431 64.9531 138.341 64.5619 137.554 63.7793C136.767 62.9972 136.373 61.8671 136.373 60.3888V54.6657H138.257V60.3166C138.257 61.3599 138.481 62.1182 138.931 62.5917C139.38 63.0647 140.015 63.3013 140.836 63.3013C141.657 63.3013 142.29 63.0647 142.734 62.5917C143.179 62.1182 143.401 61.3599 143.401 60.3166V54.6657H145.256V60.3888C145.256 61.8671 144.862 62.9972 144.075 63.7793C143.287 64.5619 142.203 64.9531 140.822 64.9531Z" fill="#FAFAFA"/>
<path d="M154.962 64.8086L151.079 60.1863L152.325 58.8097L157.164 64.8086H154.962ZM149.572 62.4176L149.47 60.1863L154.788 54.6659H156.904L152.484 59.3607L151.441 60.505L149.572 62.4176ZM147.891 54.6659H149.774V64.8086H147.891V54.6659Z" fill="#FAFAFA"/>
<path d="M158.686 62.4614L159.193 60.9834H164.67L165.177 62.4614H158.686ZM156.585 64.8086L161.149 54.6659H163.004L167.583 64.8086H165.612L161.686 55.6658H162.439L158.527 64.8086H156.585Z" fill="#FAFAFA"/>
<path d="M173.422 64.9531C172.649 64.9531 171.932 64.8253 171.27 64.5691C170.609 64.3134 170.034 63.9513 169.546 63.4825C169.058 63.014 168.679 62.4611 168.408 61.8237C168.138 61.1859 168.003 60.4906 168.003 59.7368C168.003 58.9835 168.138 58.2881 168.408 57.6503C168.679 57.0129 169.061 56.46 169.553 55.9911C170.046 55.5227 170.62 55.1606 171.277 54.9045C171.934 54.6488 172.654 54.5205 173.437 54.5205C174.267 54.5205 175.025 54.6633 175.712 54.9479C176.397 55.2332 176.977 55.6559 177.45 56.2158L176.233 57.3608C175.866 56.9645 175.456 56.6677 175.001 56.4696C174.547 56.2718 174.054 56.1724 173.524 56.1724C172.992 56.1724 172.507 56.2592 172.067 56.4335C171.628 56.6074 171.246 56.8535 170.923 57.1722C170.599 57.4909 170.348 57.868 170.169 58.3027C169.99 58.7373 169.901 59.2154 169.901 59.7368C169.901 60.2583 169.99 60.7371 170.169 61.1714C170.348 61.606 170.599 61.9831 170.923 62.3018C171.246 62.6205 171.628 62.8666 172.067 63.0409C172.507 63.2145 172.992 63.3013 173.524 63.3013C174.054 63.3013 174.547 63.2022 175.001 63.0044C175.456 62.8063 175.866 62.5045 176.233 62.0987L177.45 63.2579C176.977 63.8089 176.397 64.2286 175.712 64.5185C175.025 64.8084 174.262 64.9531 173.422 64.9531Z" fill="#FAFAFA"/>
<path d="M181.608 64.8086V60.7949L182.028 61.9541L177.623 54.6659H179.637L183.173 60.5342H182.043L185.607 54.6659H187.462L183.057 61.9541L183.491 60.7949V64.8086H181.608Z" fill="#FAFAFA"/>
<path d="M190.128 64.9531C189.481 64.9531 188.885 64.8276 188.339 64.5768C187.793 64.3253 187.347 63.9632 186.999 63.4898L188.071 62.2C188.351 62.5867 188.658 62.8766 188.991 63.0697C189.324 63.2632 189.689 63.3596 190.085 63.3596C191.138 63.3596 191.664 62.7364 191.664 61.49V56.2449H188.056V54.6657H193.548V61.3891C193.548 62.5867 193.256 63.4802 192.671 64.0692C192.087 64.6586 191.239 64.9531 190.128 64.9531Z" fill="#FAFAFA"/>
<path d="M196.185 64.8086V54.6659H197.735L204.096 62.4759H203.328V54.6659H205.198V64.8086H203.647L197.286 56.9985H198.054V64.8086H196.185Z" fill="#FAFAFA"/>
<path d="M209.658 58.8819H214.7V60.4324H209.658V58.8819ZM209.803 63.2289H215.526V64.8086H207.919V54.6655H215.323V56.2452H209.803V63.2289Z" fill="#FAFAFA"/>
<path d="M24.208 36.543C22.6153 36.543 21.1373 36.2792 19.7746 35.752C18.4107 35.2248 17.2266 34.4783 16.2217 33.5126C15.2164 32.5477 14.4351 31.4077 13.8779 30.0945C13.3208 28.7805 13.042 27.3475 13.042 25.7951C13.042 24.2427 13.3208 22.8097 13.8779 21.4957C14.4351 20.1825 15.2214 19.0433 16.2367 18.0776C17.2515 17.1123 18.4357 16.3658 19.7892 15.8382C21.1427 15.3114 22.6256 15.0473 24.238 15.0473C25.9493 15.0473 27.5117 15.341 28.9251 15.9281C30.3382 16.5152 31.5323 17.386 32.5076 18.5403L29.9999 20.8987C29.2431 20.0831 28.3976 19.471 27.4622 19.0629C26.5264 18.6551 25.5116 18.4508 24.4169 18.4508C23.3222 18.4508 22.3219 18.6297 21.4165 18.988C20.5107 19.3462 19.7247 19.8539 19.0577 20.5108C18.3908 21.1674 17.8736 21.9438 17.5053 22.8397C17.1367 23.7351 16.9532 24.7204 16.9532 25.7951C16.9532 26.8699 17.1367 27.8551 17.5053 28.751C17.8736 29.6464 18.3908 30.4228 19.0577 31.0794C19.7247 31.7364 20.5107 32.244 21.4165 32.6022C22.3219 32.9605 23.3222 33.1394 24.4169 33.1394C25.5116 33.1394 26.5264 32.9355 27.4622 32.5274C28.3976 32.1196 29.2431 31.4975 29.9999 30.6616L32.5076 33.0499C31.5323 34.1846 30.3382 35.0501 28.9251 35.6472C27.5117 36.2446 25.9397 36.543 24.208 36.543Z" fill="#FAFAFA"/>
<path d="M50.9282 15.3455H54.8095V36.2441H50.9282V15.3455ZM51.2266 27.2875H39.7922V23.9738H51.2266V27.2875ZM40.1205 36.2441H36.2393V15.3455H40.1205V36.2441Z" fill="#FAFAFA"/>
<path d="M70.1848 33.1394C71.2396 33.1394 72.2152 32.9605 73.1107 32.6022C74.0065 32.2436 74.7825 31.7314 75.4395 31.0644C76.0965 30.3978 76.6083 29.6214 76.9769 28.7356C77.3448 27.8505 77.5291 26.8699 77.5291 25.7951C77.5291 24.7204 77.3448 23.7401 76.9769 22.8542C76.6083 21.9688 76.0965 21.1928 75.4395 20.5254C74.7825 19.8588 74.0065 19.3462 73.1107 18.988C72.2152 18.6297 71.2396 18.4508 70.1848 18.4508C69.1296 18.4508 68.1593 18.6297 67.2739 18.988C66.388 19.3462 65.612 19.8588 64.945 20.5254C64.2781 21.1928 63.7609 21.9688 63.393 22.8542C63.0244 23.7401 62.8405 24.7204 62.8405 25.7951C62.8405 26.8503 63.0244 27.8252 63.393 28.721C63.7609 29.6164 64.2735 30.3978 64.9301 31.0644C65.5871 31.7314 66.3635 32.2436 67.2589 32.6022C68.1547 32.9605 69.1296 33.1394 70.1848 33.1394ZM70.2147 36.543C68.5824 36.543 67.08 36.2742 65.7065 35.737C64.3334 35.1994 63.1388 34.4484 62.124 33.4827C61.1087 32.5178 60.3224 31.3831 59.7652 30.0791C59.2081 28.7759 58.9297 27.3475 58.9297 25.7951C58.9297 24.2427 59.2081 22.8147 59.7652 21.5107C60.3224 20.2075 61.1087 19.0728 62.124 18.1072C63.1388 17.1422 64.3334 16.3904 65.7065 15.8532C67.08 15.316 68.5728 15.0472 70.1848 15.0472C71.8167 15.0472 73.3146 15.316 74.6781 15.8532C76.0412 16.3904 77.2307 17.1422 78.246 18.1072C79.2608 19.0728 80.0472 20.2075 80.6043 21.5107C81.1615 22.8147 81.4403 24.2427 81.4403 25.7951C81.4403 27.3475 81.1615 28.7805 80.6043 30.0941C80.0472 31.4077 79.2608 32.5423 78.246 33.4977C77.2307 34.453 76.0412 35.1994 74.6781 35.737C73.3146 36.2742 71.827 36.543 70.2147 36.543Z" fill="#FAFAFA"/>
<path d="M89.8299 36.2461L82.9033 15.3475H86.9339L93.114 34.246H91.1135L97.5324 15.3475H101.115L107.355 34.246H105.414L111.744 15.3475H115.446L108.519 36.2461H104.399L98.697 19.1987H99.7717L93.9799 36.2461H89.8299Z" fill="#FAFAFA"/>
<path d="M119.33 31.4095L120.375 28.3642H131.661L132.705 31.4095H119.33ZM115.001 36.2461L124.406 15.3475H128.227L137.661 36.2461H133.601L125.51 17.4075H127.063L119.002 36.2461H115.001Z" fill="#FAFAFA"/>
<path d="M140.313 36.2461V15.3475H143.508L156.614 31.4395H155.032V15.3475H158.883V36.2461H155.689L142.582 20.1541H144.165V36.2461H140.313Z" fill="#FAFAFA"/>
<path d="M164.497 15.3455H168.378V36.2441H164.497V15.3455Z" fill="#FAFAFA"/>
<path d="M175.394 31.4095L176.439 28.3642H187.725L188.769 31.4095H175.394ZM171.065 36.2461L180.47 15.3475H184.291L193.725 36.2461H189.665L181.574 17.4075H183.127L175.066 36.2461H171.065Z" fill="#FAFAFA"/>
<path d="M210.954 36.2441L202.953 26.7204L205.521 23.884L215.492 36.2441H210.954ZM199.848 31.3181L199.639 26.7204L210.596 15.3455H214.955L205.849 25.0186L203.699 27.377L199.848 31.3181ZM196.385 15.3455H200.266V36.2441H196.385V15.3455Z" fill="#FAFAFA"/>
</g>
</g>
<defs>
<clipPath id="clip0_438_5451">
<rect width="228.571" height="80" fill="white"/>
</clipPath>
</defs>
</svg>
