<svg width="160" height="56" viewBox="0 0 160 56" fill="none" xmlns="http://www.w3.org/2000/svg">
<g id="LOGO Chowaniak pink" clip-path="url(#clip0_438_5262)">
<g id="Logo">
<g id="Clip path group">
<mask id="mask0_438_5262" style="mask-type:luminance" maskUnits="userSpaceOnUse" x="0" y="-52" width="160" height="160">
<g id="clipPath138">
<path id="path136" d="M0 -52H160V108H0V-52Z" fill="white"/>
</g>
</mask>
<g mask="url(#mask0_438_5262)">
<g id="g134">
<g id="g140">
<path id="path142" fill-rule="evenodd" clip-rule="evenodd" d="M150.64 30.6491H82.7887C79.8294 30.6491 77.1421 31.8565 75.1948 33.8035C73.2469 35.7514 72.0395 38.4382 72.0395 41.3975H69.8135C69.8135 37.8243 71.2703 34.5803 73.6208 32.2298C75.9705 29.8798 79.2147 28.423 82.7887 28.423H150.64V30.6491Z" fill="#212121"/>
</g>
<g id="g144">
<path id="path146" fill-rule="evenodd" clip-rule="evenodd" d="M150.801 35.067H82.7879C81.0483 35.067 79.4655 35.7795 78.3175 36.9278C77.1692 38.0757 76.4572 39.6581 76.4572 41.3984H74.2314C74.2314 39.0436 75.1934 36.9039 76.744 35.3538C78.2941 33.8037 80.4336 32.8409 82.7879 32.8409H150.801V35.067Z" fill="#212121"/>
</g>
<g id="g148">
<path id="path150" fill-rule="evenodd" clip-rule="evenodd" d="M9.24219 28.424H59.0622C62.6362 28.424 65.8804 29.8803 68.2301 32.2308C70.5806 34.5813 72.0374 37.825 72.0374 41.3984H69.8113C69.8113 38.4394 68.6034 35.7527 66.6561 33.8048C64.7088 31.8575 62.0215 30.6501 59.0622 30.6501H9.24219V28.424Z" fill="#212121"/>
</g>
<g id="g152">
<path id="path154" fill-rule="evenodd" clip-rule="evenodd" d="M9.24219 32.8408H59.0622C61.417 32.8408 63.5568 33.803 65.1066 35.3536C66.6566 36.9037 67.6191 39.0435 67.6191 41.3975H65.3933C65.3933 39.6574 64.6808 38.0758 63.5328 36.9276C62.3851 35.7796 60.8025 35.0668 59.0622 35.0668H9.24219V32.8408Z" fill="#212121"/>
</g>
<path id="path156" fill-rule="evenodd" clip-rule="evenodd" d="M65.3916 43.0026H76.4171V45.2295H65.3916V43.0026Z" fill="#212121"/>
<g id="g158">
<path id="path160" d="M12.9967 45.4668C12.4557 45.4668 11.9536 45.3773 11.4905 45.198C11.0271 45.019 10.6247 44.7655 10.2834 44.4374C9.94201 44.1094 9.67645 43.7224 9.48723 43.2762C9.29774 42.8298 9.20312 42.343 9.20312 41.8154C9.20312 41.288 9.29774 40.8013 9.48723 40.3548C9.67645 39.9086 9.94362 39.5216 10.2885 39.1934C10.6333 38.8655 11.0357 38.612 11.4956 38.4327C11.9552 38.2537 12.4592 38.164 13.0069 38.164C13.5883 38.164 14.1189 38.264 14.5992 38.4631C15.0793 38.6628 15.4848 38.9588 15.8163 39.3506L14.9645 40.1522C14.7073 39.8748 14.4199 39.667 14.1022 39.5283C13.7843 39.3899 13.4394 39.3203 13.0677 39.3203C12.6957 39.3203 12.3559 39.381 12.0485 39.503C11.7404 39.6248 11.4735 39.7971 11.2469 40.0202C11.0204 40.2433 10.8446 40.5072 10.7196 40.8115C10.5943 41.1157 10.532 41.4504 10.532 41.8154C10.532 42.1804 10.5943 42.5156 10.7196 42.8196C10.8446 43.1238 11.0204 43.3878 11.2469 43.6109C11.4735 43.8339 11.7404 44.0062 12.0485 44.1283C12.3559 44.2497 12.6957 44.3105 13.0677 44.3105C13.4394 44.3105 13.7843 44.2411 14.1022 44.1027C14.4199 43.964 14.7073 43.7528 14.9645 43.4687L15.8163 44.2801C15.4848 44.6658 15.0793 44.9596 14.5992 45.1625C14.1189 45.3655 13.5848 45.4668 12.9967 45.4668Z" fill="#212121"/>
</g>
<path id="path162" d="M18.3001 41.2166H21.8297V42.3019H18.3001V41.2166ZM18.4014 44.2595H22.4079V45.3652H17.083V38.2651H22.2659V39.3708H18.4014V44.2595Z" fill="#212121"/>
<g id="g164">
<path id="path166" d="M23.8799 45.3655V38.2656H24.9652L29.4179 43.7326H28.8803V38.2656H30.1888V45.3655H29.1034L24.6508 39.8984H25.1883V45.3655H23.8799Z" fill="#212121"/>
</g>
<g id="g168">
<path id="path170" d="M33.5378 45.3652V39.3808H31.1846V38.2653H37.2096V39.3808H34.8564V45.3652H33.5378Z" fill="#212121"/>
</g>
<g id="g172">
<path id="path174" d="M42.8456 45.3652L41.0501 42.789H42.4601L44.2655 45.3652H42.8456ZM39.5188 42.8398L38.9305 42.2108H41.0603C41.6417 42.2108 42.0798 42.0858 42.3739 41.8356C42.6679 41.5853 42.8152 41.2373 42.8152 40.7908C42.8152 40.3379 42.6679 39.9896 42.3739 39.7461C42.0798 39.5025 41.6417 39.3808 41.0603 39.3808H38.9305L39.5188 38.7317V42.8398ZM38.2002 45.3652V38.2653H41.1211C41.75 38.2653 42.2892 38.3667 42.7391 38.5696C43.1885 38.7725 43.5353 39.0634 43.7788 39.4418C44.022 39.8205 44.1438 40.2702 44.1438 40.7908C44.1438 41.3117 44.022 41.7595 43.7788 42.1347C43.5353 42.51 43.1885 42.7976 42.7391 42.9967C42.2892 43.1964 41.75 43.2961 41.1211 43.2961H38.9305L39.5188 42.6976V45.3652H38.2002Z" fill="#212121"/>
</g>
<g id="g176">
<path id="path178" d="M48.6685 45.4668C47.6947 45.4668 46.9325 45.1929 46.3815 44.6451C45.8302 44.0976 45.5547 43.3066 45.5547 42.2718V38.2656H46.8733V42.2212C46.8733 42.9515 47.0306 43.4824 47.3451 43.8138C47.6593 44.1449 48.1038 44.3105 48.6788 44.3105C49.2534 44.3105 49.6964 44.1449 50.0073 43.8138C50.3183 43.4824 50.474 42.9515 50.474 42.2212V38.2656H51.7722V42.2718C51.7722 43.3066 51.4967 44.0976 50.9457 44.6451C50.3944 45.1929 49.6353 45.4668 48.6685 45.4668Z" fill="#212121"/>
</g>
<g id="g180">
<path id="path182" d="M53.6182 45.3652V38.2653H54.7035L57.8071 43.4483H57.2392L60.292 38.2653H61.3774L61.3876 45.3652H60.1399L60.13 40.2229H60.3936L57.7969 44.5538H57.2086L54.5715 40.2229H54.8758V45.3652H53.6182Z" fill="#212121"/>
</g>
<path id="path184" d="M81.5657 41.2166H85.0953V42.3019H81.5657V41.2166ZM81.667 44.2595H85.6732V45.3652H80.3486V38.2651H85.5316V39.3708H81.667V44.2595Z" fill="#212121"/>
<g id="g186">
<path id="path188" d="M88.4642 44.2495H90.1884C90.7225 44.2495 91.184 44.1482 91.5726 43.9453C91.9618 43.7423 92.2626 43.4585 92.4757 43.0932C92.6886 42.7282 92.7951 42.3022 92.7951 41.8152C92.7951 41.3217 92.6886 40.8943 92.4757 40.5322C92.2626 40.1705 91.9618 39.888 91.5726 39.6856C91.184 39.4827 90.7225 39.3811 90.1884 39.3811H88.4642V44.2495ZM87.1455 45.3652V38.2653H90.2494C91.0203 38.2653 91.696 38.4142 92.2776 38.7115C92.8593 39.0093 93.3125 39.4216 93.6369 39.949C93.9616 40.4766 94.1239 41.0986 94.1239 41.8152C94.1239 42.5253 93.9616 43.1459 93.6369 43.6765C93.3125 44.2076 92.8593 44.6215 92.2776 44.9191C91.696 45.2169 91.0203 45.3652 90.2494 45.3652H87.1455Z" fill="#212121"/>
</g>
<g id="g190">
<path id="path192" d="M98.576 45.4668C97.6022 45.4668 96.8397 45.1929 96.2887 44.6451C95.7374 44.0976 95.4619 43.3066 95.4619 42.2718V38.2656H96.7806V42.2212C96.7806 42.9515 96.9378 43.4824 97.2523 43.8138C97.5668 44.1449 98.0111 44.3105 98.586 44.3105C99.1606 44.3105 99.6036 44.1449 99.9146 43.8138C100.226 43.4824 100.381 42.9515 100.381 42.2212V38.2656H101.68V42.2718C101.68 43.3066 101.404 44.0976 100.853 44.6451C100.302 45.1929 99.5428 45.4668 98.576 45.4668Z" fill="#212121"/>
</g>
<g id="g194">
<path id="path196" d="M108.474 45.3655L105.756 42.1299L106.628 41.1663L110.016 45.3655H108.474ZM104.701 43.6918L104.63 42.1299L108.353 38.2656H109.834L106.74 41.552L106.01 42.353L104.701 43.6918ZM103.524 38.2656H104.843V45.3655H103.524V38.2656Z" fill="#212121"/>
</g>
<g id="g198">
<path id="path200" d="M111.08 43.7222L111.435 42.6876H115.269L115.624 43.7222H111.08ZM109.609 45.3652L112.804 38.2653H114.103L117.308 45.3652H115.928L113.18 38.9652H113.707L110.969 45.3652H109.609Z" fill="#212121"/>
</g>
<g id="g202">
<path id="path204" d="M121.396 45.4668C120.855 45.4668 120.353 45.3773 119.89 45.198C119.426 45.019 119.024 44.7655 118.683 44.4374C118.341 44.1094 118.076 43.7224 117.886 43.2762C117.697 42.8298 117.603 42.343 117.603 41.8154C117.603 41.288 117.697 40.8013 117.886 40.3548C118.076 39.9086 118.343 39.5216 118.688 39.1934C119.033 38.8655 119.435 38.612 119.895 38.4327C120.355 38.2537 120.858 38.164 121.406 38.164C121.987 38.164 122.518 38.264 122.999 38.4631C123.479 38.6628 123.884 38.9588 124.216 39.3506L123.364 40.1522C123.106 39.8748 122.819 39.667 122.501 39.5283C122.184 39.3899 121.839 39.3203 121.467 39.3203C121.095 39.3203 120.755 39.381 120.448 39.503C120.14 39.6248 119.873 39.7971 119.646 40.0202C119.42 40.2433 119.244 40.5072 119.119 40.8115C118.993 41.1157 118.931 41.4504 118.931 41.8154C118.931 42.1804 118.993 42.5156 119.119 42.8196C119.244 43.1238 119.42 43.3878 119.646 43.6109C119.873 43.8339 120.14 44.0062 120.448 44.1283C120.755 44.2497 121.095 44.3105 121.467 44.3105C121.839 44.3105 122.184 44.2411 122.501 44.1027C122.819 43.964 123.106 43.7528 123.364 43.4687L124.216 44.2801C123.884 44.6658 123.479 44.9596 122.999 45.1625C122.518 45.3655 121.984 45.4668 121.396 45.4668Z" fill="#212121"/>
</g>
<g id="g206">
<path id="path208" d="M127.126 45.3655V42.5559L127.42 43.3673L124.337 38.2656H125.747L128.222 42.3734H127.431L129.926 38.2656H131.224L128.14 43.3673L128.445 42.5559V45.3655H127.126Z" fill="#212121"/>
</g>
<g id="g210">
<path id="path212" d="M133.09 45.4668C132.637 45.4668 132.219 45.3789 131.837 45.2034C131.455 45.0273 131.143 44.7739 130.899 44.4425L131.65 43.5396C131.846 43.8103 132.061 44.0132 132.294 44.1484C132.527 44.2839 132.782 44.3513 133.06 44.3513C133.797 44.3513 134.165 43.9151 134.165 43.0426V39.3711H131.64V38.2656H135.484V42.972C135.484 43.8103 135.279 44.4357 134.87 44.8481C134.461 45.2606 133.868 45.4668 133.09 45.4668Z" fill="#212121"/>
</g>
<g id="g214">
<path id="path216" d="M137.33 45.3652V38.2653H138.415L142.868 43.7324H142.331V38.2653H143.639V45.3652H142.554L138.101 39.8982H138.639V45.3652H137.33Z" fill="#212121"/>
</g>
<path id="path218" d="M146.761 41.2166H150.291V42.3019H146.761V41.2166ZM146.863 44.2595H150.869V45.3652H145.544V38.2651H150.727V39.3708H146.863V44.2595Z" fill="#212121"/>
<g id="g220">
<path id="path222" d="M16.9461 25.5798C15.8312 25.5798 14.7966 25.3952 13.8427 25.0261C12.888 24.6571 12.0591 24.1346 11.3557 23.4586C10.652 22.7831 10.105 21.9851 9.71502 21.0659C9.32502 20.1461 9.12988 19.143 9.12988 18.0563C9.12988 16.9696 9.32502 15.9665 9.71502 15.0468C10.105 14.1275 10.6555 13.3301 11.3662 12.6541C12.0765 11.9783 12.9055 11.4558 13.8529 11.0865C14.8004 10.7178 15.8384 10.5328 16.9671 10.5328C18.165 10.5328 19.2587 10.7385 20.2481 11.1494C21.2372 11.5604 22.0731 12.17 22.7558 12.978L21.0004 14.6288C20.4706 14.0579 19.8788 13.6295 19.224 13.3438C18.569 13.0583 17.8586 12.9153 17.0923 12.9153C16.326 12.9153 15.6258 13.0406 14.992 13.2914C14.358 13.5421 13.8078 13.8975 13.3409 14.3573C12.874 14.817 12.512 15.3604 12.2542 15.9875C11.9962 16.6143 11.8677 17.304 11.8677 18.0563C11.8677 18.8087 11.9962 19.4984 12.2542 20.1254C12.512 20.7522 12.874 21.2957 13.3409 21.7553C13.8078 22.2152 14.358 22.5705 14.992 22.8213C15.6258 23.0721 16.326 23.1973 17.0923 23.1973C17.8586 23.1973 18.569 23.0546 19.224 22.7689C19.8788 22.4835 20.4706 22.048 21.0004 21.4629L22.7558 23.1347C22.0731 23.929 21.2372 24.5348 20.2481 24.9528C19.2587 25.371 18.1583 25.5798 16.9461 25.5798Z" fill="#212121"/>
</g>
<path id="path224" d="M35.6505 10.742H38.3673V25.3711H35.6505V10.742ZM35.8593 19.1015H27.8552V16.7819H35.8593V19.1015ZM28.085 25.3711H25.3682V10.742H28.085V25.3711Z" fill="#212121"/>
<g id="g226">
<path id="path228" d="M49.1295 23.1976C49.8679 23.1976 50.5509 23.0723 51.1777 22.8216C51.8047 22.5705 52.3479 22.212 52.8078 21.7451C53.2677 21.2785 53.626 20.735 53.884 20.1149C54.1415 19.4954 54.2706 18.8089 54.2706 18.0566C54.2706 17.3043 54.1415 16.618 53.884 15.998C53.626 15.3782 53.2677 14.8349 52.8078 14.3678C52.3479 13.9012 51.8047 13.5424 51.1777 13.2916C50.5509 13.0408 49.8679 12.9156 49.1295 12.9156C48.3909 12.9156 47.7117 13.0408 47.0919 13.2916C46.4718 13.5424 45.9286 13.9012 45.4617 14.3678C44.9949 14.8349 44.6328 15.3782 44.3753 15.998C44.1173 16.618 43.9885 17.3043 43.9885 18.0566C43.9885 18.7952 44.1173 19.4776 44.3753 20.1047C44.6328 20.7315 44.9916 21.2785 45.4512 21.7451C45.9111 22.212 46.4546 22.5705 47.0814 22.8216C47.7085 23.0723 48.3909 23.1976 49.1295 23.1976ZM49.1505 25.5801C48.0079 25.5801 46.9562 25.3919 45.9947 25.0159C45.0336 24.6396 44.1974 24.1139 43.487 23.4379C42.7763 22.7624 42.2259 21.9682 41.8358 21.0554C41.4458 20.1431 41.251 19.1433 41.251 18.0566C41.251 16.9699 41.4458 15.9703 41.8358 15.0575C42.2259 14.1452 42.7763 13.351 43.487 12.675C44.1974 11.9996 45.0336 11.4733 45.9947 11.0972C46.9562 10.7212 48.0012 10.5331 49.1295 10.5331C50.2719 10.5331 51.3204 10.7212 52.2748 11.0972C53.229 11.4733 54.0617 11.9996 54.7724 12.675C55.4828 13.351 56.0332 14.1452 56.4232 15.0575C56.8132 15.9703 57.0084 16.9699 57.0084 18.0566C57.0084 19.1433 56.8132 20.1464 56.4232 21.0659C56.0332 21.9854 55.4828 22.7796 54.7724 23.4484C54.0617 24.1171 53.229 24.6396 52.2748 25.0159C51.3204 25.3919 50.2791 25.5801 49.1505 25.5801Z" fill="#212121"/>
</g>
<g id="g230">
<path id="path232" d="M62.8818 25.3711L58.0332 10.742H60.8546L65.1807 23.971H63.7803L68.2736 10.742H70.7816L75.1493 23.971H73.7909L78.2215 10.742H80.8128L75.9642 25.3711H73.0802L69.0888 13.4379H69.8411L65.7868 25.3711H62.8818Z" fill="#212121"/>
</g>
<g id="g234">
<path id="path236" d="M83.5312 21.9855L84.2626 19.8538H92.1627L92.894 21.9855H83.5312ZM80.501 25.3711L87.0843 10.742H89.7589L96.3629 25.3711H93.5208L87.8576 12.1841H88.9443L83.3014 25.3711H80.501Z" fill="#212121"/>
</g>
<g id="g238">
<path id="path240" d="M98.2197 25.3711V10.742H100.456L109.63 22.0065H108.523V10.742H111.219V25.3711H108.983L99.808 14.1067H100.916V25.3711H98.2197Z" fill="#212121"/>
</g>
<path id="path242" d="M115.148 10.742H117.865V25.3711H115.148V10.742Z" fill="#212121"/>
<g id="g244">
<path id="path246" d="M122.776 21.9853L123.508 19.8535H131.408L132.139 21.9853H122.776ZM119.746 25.3708L126.329 10.7418H129.004L135.608 25.3708H132.766L127.102 12.1838H128.189L122.547 25.3708H119.746Z" fill="#212121"/>
</g>
<g id="g248">
<path id="path250" d="M147.668 25.3711L142.067 18.7045L143.865 16.719L150.845 25.3711H147.668ZM139.894 21.9229L139.748 18.7045L147.417 10.742H150.469L144.095 17.5132L142.59 19.1641L139.894 21.9229ZM137.47 10.742H140.187V25.3711H137.47V10.742Z" fill="#212121"/>
</g>
</g>
</g>
</g>
</g>
</g>
<defs>
<clipPath id="clip0_438_5262">
<rect width="160" height="56" fill="white"/>
</clipPath>
</defs>
</svg>
