<svg width="98" height="98" viewBox="0 0 98 98" fill="none" xmlns="http://www.w3.org/2000/svg">
<path d="M59.5134 73.7076L46.6084 70.3552L29.7708 76.1752C27.2727 77.0416 24.7953 74.7795 25.4658 72.1985L27.2509 65.3266C17.5722 62.8123 12.7959 54.6836 15.3102 45.0048L20.3388 25.6471C22.8531 15.9684 30.9818 11.1921 40.6606 13.7064L72.9231 22.0874C82.6018 24.6017 87.3781 32.7304 84.8638 42.4091L79.8352 61.7668C77.3209 71.4456 69.1922 76.2219 59.5134 73.7076Z" stroke="#E3276F" stroke-width="5" stroke-miterlimit="10" stroke-linecap="round" stroke-linejoin="round"/>
<path d="M49.3077 46.7075L49.4836 46.0301C50.0536 43.8362 51.7104 43.0267 53.3085 42.4431C54.8659 41.8834 56.4902 41.0656 57.0433 38.9362C57.8144 35.9681 56.0473 32.9604 53.0791 32.1893C50.111 31.4183 47.1034 33.1856 46.3324 36.1538" stroke="#E3276F" stroke-width="5" stroke-linecap="round" stroke-linejoin="round"/>
<path d="M47.2899 54.4144L47.3189 54.4219" stroke="#E3276F" stroke-width="5" stroke-linecap="round" stroke-linejoin="round"/>
</svg>
