<svg width="80" height="80" viewBox="0 0 80 80" fill="none" xmlns="http://www.w3.org/2000/svg">
<g id="message-question">
<path id="Vector" d="M56.667 61.4335H43.3337L28.5003 71.3C26.3003 72.7667 23.3337 71.2002 23.3337 68.5335V61.4335C13.3337 61.4335 6.66699 54.7668 6.66699 44.7668V24.7666C6.66699 14.7666 13.3337 8.09998 23.3337 8.09998H56.667C66.667 8.09998 73.3337 14.7666 73.3337 24.7666V44.7668C73.3337 54.7668 66.667 61.4335 56.667 61.4335Z" stroke="#4A691B" stroke-width="5" stroke-miterlimit="10" stroke-linecap="round" stroke-linejoin="round"/>
<path id="Vector_2" d="M40 37.8666V37.1668C40 34.9001 41.4001 33.7 42.8001 32.7334C44.1668 31.8 45.5333 30.6001 45.5333 28.4001C45.5333 25.3334 43.0667 22.8666 40 22.8666C36.9334 22.8666 34.4668 25.3334 34.4668 28.4001" stroke="#4A691B" stroke-width="5" stroke-linecap="round" stroke-linejoin="round"/>
<path id="Vector_3" d="M39.9847 45.8334H40.0147" stroke="#4A691B" stroke-width="5" stroke-linecap="round" stroke-linejoin="round"/>
</g>
</svg>
