<svg width="95" height="95" viewBox="0 0 95 95" fill="none" xmlns="http://www.w3.org/2000/svg">
<path d="M77.1612 27.4583L80.4608 43.7951C83.1005 56.8645 77.8857 64.7191 64.8162 67.3588L63.1826 67.6887C62.1697 67.8933 61.2885 68.5814 60.8326 69.5236L57.2515 77.0482C55.6758 80.359 52.147 81.0718 49.4098 78.632L43.1889 73.0872C42.521 72.474 41.1933 72.1301 40.3111 72.3082L38.6774 72.6382C25.608 75.2779 18.4133 73.3304 15.1137 56.9936L11.8141 40.6569C9.17435 27.5874 14.3892 19.7329 27.4586 17.0932L40.528 14.4535" stroke="#4A691B" stroke-width="5" stroke-miterlimit="10" stroke-linecap="round" stroke-linejoin="round"/>
<path d="M52.7122 20.902C50.9807 17.8851 51.4498 13.6416 54.7542 11.818C56.4717 10.893 58.8512 10.8884 60.508 12.3562C61.3866 10.3083 63.6599 9.44111 65.6018 9.627C69.3483 9.99251 71.4343 13.754 71.0094 17.2064C70.3791 22.6728 65.0651 26.5006 63.4314 26.8305C61.7978 27.1605 55.4866 25.7147 52.7122 20.902Z" stroke="#4A691B" stroke-width="5" stroke-linecap="round" stroke-linejoin="round"/>
<path d="M59.5258 41.2224L59.5551 41.2164" stroke="#4A691B" stroke-width="5" stroke-linecap="round" stroke-linejoin="round"/>
<path d="M46.4525 43.8625L46.4819 43.8566" stroke="#4A691B" stroke-width="5" stroke-linecap="round" stroke-linejoin="round"/>
<path d="M33.3803 46.5031L33.4096 46.4972" stroke="#4A691B" stroke-width="5" stroke-linecap="round" stroke-linejoin="round"/>
</svg>
