<svg width="98" height="98" viewBox="0 0 98 98" fill="none" xmlns="http://www.w3.org/2000/svg">
<g id="video-play">
<path id="Vector" d="M83.7854 50.0309L78.609 30.7124C74.2953 14.6136 66.1304 9.89957 50.0316 14.2132L30.7131 19.3896C14.6143 23.7033 9.90027 31.8682 14.2139 47.967L19.3903 67.2855C23.7039 83.3843 31.8689 88.0983 47.9677 83.7847L67.2862 78.6083C83.385 74.2946 88.099 66.1297 83.7854 50.0309Z" stroke="#4A691B" stroke-width="5" stroke-linecap="round" stroke-linejoin="round"/>
<path id="Vector_2" d="M14.2578 41.4331L75.3043 25.0757" stroke="#4A691B" stroke-width="5" stroke-linecap="round" stroke-linejoin="round"/>
<path id="Vector_3" d="M29.2627 20.1582L33.4556 35.8062" stroke="#4A691B" stroke-width="5" stroke-linecap="round" stroke-linejoin="round"/>
<path id="Vector_4" d="M51.6719 14.1533L55.4765 28.3524" stroke="#4A691B" stroke-width="5" stroke-linecap="round" stroke-linejoin="round"/>
<path id="Vector_5" d="M43.8684 58.8289L42.8331 54.9652C41.5045 50.0068 44.4705 47.0379 49.4171 48.3697L53.2833 49.4043L57.1495 50.4389C62.0961 51.7707 63.1831 55.8276 59.5651 59.4543L56.7342 62.2833L53.9033 65.1124C50.2853 68.7391 46.2323 67.651 44.9037 62.6926L43.8684 58.8289V58.8289Z" stroke="#4A691B" stroke-width="5" stroke-miterlimit="10" stroke-linecap="round" stroke-linejoin="round"/>
</g>
</svg>
