<svg width="24" height="25" viewBox="0 0 24 25" fill="none" xmlns="http://www.w3.org/2000/svg">
<path d="M8.39223 6.89681C8.60492 6.90552 8.84024 6.91548 9.06382 7.41246C9.21661 7.75221 9.4737 8.38559 9.67859 8.89036C9.82956 9.2623 9.95218 9.56441 9.98384 9.62773C10.0585 9.77697 10.1082 9.95124 10.0087 10.1505C9.99381 10.1803 9.98003 10.2084 9.96687 10.2353C9.8921 10.3879 9.83717 10.5 9.71055 10.6482C9.66094 10.7061 9.60963 10.7685 9.55833 10.8309C9.45531 10.9562 9.35228 11.0816 9.26283 11.1708C9.11313 11.3196 8.95764 11.4813 9.13174 11.7798C9.30589 12.0785 9.90487 13.0554 10.7921 13.8464C11.7452 14.6962 12.5731 15.0557 12.9936 15.2382C13.0762 15.274 13.143 15.3031 13.192 15.3276C13.4905 15.4769 13.6646 15.452 13.8387 15.2525C14.0129 15.0535 14.5845 14.3815 14.7835 14.083C14.9824 13.7842 15.1814 13.834 15.455 13.9335C15.7286 14.033 17.1959 14.7551 17.4943 14.9043C17.5525 14.9334 17.6069 14.9596 17.6574 14.984C17.8657 15.0845 18.0063 15.1524 18.0664 15.2525C18.141 15.3774 18.141 15.9746 17.8923 16.6714C17.6436 17.3683 16.4251 18.0404 15.8779 18.0902C15.8252 18.0949 15.7729 18.1011 15.719 18.1074C15.2133 18.1669 14.575 18.2419 12.2966 17.3435C9.49301 16.2379 7.64445 13.4981 7.26254 12.932C7.23123 12.8856 7.20977 12.8538 7.19846 12.8387L7.19514 12.8343C7.03421 12.6192 5.97984 11.2101 5.97984 9.75212C5.97984 8.37772 6.65542 7.65728 6.96626 7.32581C6.9875 7.30315 7.00703 7.28232 7.02454 7.26322C7.29794 6.96456 7.62133 6.88983 7.82028 6.88983C7.83119 6.88983 7.8421 6.88982 7.853 6.88982C8.0409 6.8898 8.22784 6.88978 8.39223 6.89681Z" fill="#EEEEEE"/>
<path fill-rule="evenodd" clip-rule="evenodd" d="M1.71084 18.3567C0.650603 16.5495 0.0963857 14.5013 0.0963857 12.3808C0.0963857 5.80252 5.46988 0.453125 12.0482 0.453125C15.253 0.453125 18.241 1.70614 20.506 3.9471C22.747 6.21216 24 9.20011 24 12.4049C24 18.9832 18.6265 24.3326 12.0482 24.3326C10.0482 24.3326 8.07229 23.8507 6.33735 22.8869L0 24.5495L1.71084 18.3567ZM3.63855 17.682L3.87952 18.0435L2.86747 21.7061L6.62651 20.7182L6.98795 20.9351C8.50603 21.8507 10.2651 22.3326 12.0482 22.3326C17.5181 22.3326 21.9759 17.8748 21.9759 12.4049C21.9759 9.75433 20.9398 7.24831 19.0602 5.36879C17.2048 3.51337 14.6988 2.47722 12.0482 2.47722C6.57831 2.47722 2.12048 6.91096 2.12048 12.4049C2.12048 14.2604 2.6506 16.0917 3.63855 17.682Z" fill="#EEEEEE"/>
</svg>
