<svg width="24" height="25" viewBox="0 0 24 25" fill="none" xmlns="http://www.w3.org/2000/svg">
<path fill-rule="evenodd" clip-rule="evenodd" d="M7.10095 0.5C8.41954 0.5 9.69981 0.870421 10.8017 1.55345C11.194 1.51153 11.5889 1.4904 11.985 1.4904C13.4424 1.4904 14.8856 1.77652 16.2321 2.33242C17.5786 2.88831 18.8021 3.7031 19.8327 4.73027C20.8633 5.75743 21.6808 6.97686 22.2385 8.31891C22.7963 9.66096 23.0834 11.0994 23.0834 12.552C23.0834 13.0682 23.0471 13.5826 22.9753 14.0916C23.1115 14.3331 23.2334 14.583 23.3402 14.84C23.6924 15.6877 23.8738 16.5961 23.8738 17.5136C23.8738 18.4311 23.6924 19.3396 23.3402 20.1872C22.9879 21.0348 22.4716 21.805 21.8207 22.4537C21.1698 23.1025 20.3971 23.6171 19.5466 23.9682C18.6962 24.3193 17.7847 24.5 16.8642 24.5C15.6032 24.5 14.3773 24.1614 13.3088 23.5346C12.8704 23.5871 12.4283 23.6136 11.985 23.6136C10.5275 23.6136 9.0843 23.3275 7.73778 22.7716C6.39126 22.2157 5.16778 21.4009 4.1372 20.3737C3.10662 19.3466 2.28911 18.1271 1.73137 16.7851C1.17362 15.443 0.886551 14.0046 0.886551 12.552C0.886551 12.0081 0.926797 11.4662 1.00643 10.9306C0.4134 9.88879 0.09375 8.70282 0.09375 7.484C0.09375 5.63173 0.832006 3.85532 2.14611 2.54557C3.46022 1.23581 5.24253 0.5 7.10095 0.5ZM7.77055 11.0144C8.04139 11.478 8.41565 11.8728 8.86415 12.168C9.45838 12.5568 10.0901 12.8851 10.7498 13.148C11.4874 13.4563 12.0596 13.7176 12.4666 13.932C12.8106 14.1012 13.123 14.3286 13.3898 14.604C13.5916 14.8182 13.7038 15.1016 13.7034 15.396C13.712 15.6036 13.6711 15.8103 13.5841 15.9989C13.497 16.1876 13.3662 16.3528 13.2026 16.4808C12.7654 16.7749 12.2425 16.9143 11.717 16.8768C11.4198 16.8799 11.1232 16.8493 10.833 16.7856C10.5975 16.7339 10.3673 16.6611 10.145 16.568C9.95029 16.4837 9.68442 16.3573 9.34735 16.1888C9.07628 16.0442 8.77455 15.9666 8.46735 15.9624C8.19165 15.9511 7.92215 16.0462 7.71455 16.228C7.61553 16.3223 7.53815 16.4369 7.48773 16.5639C7.43732 16.691 7.41508 16.8275 7.42255 16.964C7.41636 17.2228 7.49441 17.4766 7.64495 17.6872C7.82628 17.917 8.06074 18.0993 8.32815 18.2184C9.37415 18.6717 10.508 18.8863 11.6474 18.8464C12.4764 18.8631 13.3016 18.7286 14.0826 18.4496C14.7305 18.2195 15.2947 17.8008 15.7026 17.2472C16.1031 16.6625 16.306 15.9651 16.2818 15.2568C16.2973 14.6783 16.1525 14.1069 15.8634 13.6056C15.5697 13.1287 15.1741 12.7227 14.705 12.4168C14.1109 12.0336 13.4807 11.7096 12.8234 11.4496C12.7531 11.4152 12.6803 11.386 12.6058 11.3624C11.9322 11.084 11.4255 10.8605 11.0858 10.692C10.7824 10.5498 10.5078 10.3532 10.2754 10.112C10.0798 9.90665 9.97186 9.63318 9.97455 9.3496C9.96518 9.13361 10.014 8.91906 10.1159 8.72837C10.2178 8.53769 10.369 8.37787 10.5538 8.2656C10.9916 8.00456 11.4956 7.87566 12.005 7.8944C12.3958 7.89031 12.7854 7.93874 13.1634 8.0384C13.5739 8.1568 13.9757 8.30383 14.3658 8.4784C14.524 8.55183 14.6961 8.59056 14.8706 8.592C14.9973 8.59536 15.1234 8.57187 15.2404 8.52306C15.3575 8.47425 15.4629 8.40123 15.5498 8.3088C15.6415 8.20849 15.7126 8.09109 15.759 7.96329C15.8054 7.8355 15.8262 7.69982 15.8202 7.564C15.8243 7.30256 15.733 7.04859 15.5634 6.8496C15.3331 6.60775 15.0476 6.42545 14.7314 6.3184C14.3869 6.19192 14.0308 6.1 13.6682 6.044C13.1615 5.9609 12.6487 5.92155 12.1354 5.9264C11.3507 5.92176 10.5712 6.05303 9.83135 6.3144C9.15111 6.54405 8.54384 6.94982 8.07135 7.4904C7.61671 8.02871 7.37633 8.71566 7.39615 9.42C7.38002 9.975 7.50907 10.5246 7.77055 11.0144Z" fill="#EEEEEE"/>
</svg>
