<svg width="16" height="19" viewBox="0 0 16 19" fill="none" xmlns="http://www.w3.org/2000/svg">
<g id="tiktok-icon 1" clip-path="url(#clip0_1706_332)">
<g id="Group">
<path id="Vector" d="M11.8686 6.96797C13.0339 7.80058 14.4616 8.29048 16.0035 8.29048V5.32492C15.7117 5.32498 15.4206 5.29457 15.1351 5.23412V7.56843C13.5933 7.56843 12.1659 7.07854 11.0002 6.24599V12.2978C11.0002 15.3253 8.54476 17.7793 5.51597 17.7793C4.38585 17.7793 3.33546 17.4378 2.46289 16.8522C3.45878 17.8699 4.84762 18.5013 6.38413 18.5013C9.41312 18.5013 11.8687 16.0472 11.8687 13.0197V6.96797H11.8686ZM12.9398 3.97609C12.3442 3.32577 11.9532 2.48535 11.8686 1.55624V1.1748H11.0457C11.2528 2.35571 11.9593 3.36461 12.9398 3.97609ZM4.37861 14.529C4.04586 14.0929 3.86604 13.5595 3.86685 13.011C3.86685 11.6264 4.98996 10.5037 6.37559 10.5037C6.63382 10.5036 6.8905 10.5432 7.1366 10.6212V7.58936C6.849 7.54997 6.55875 7.53325 6.26861 7.53938V9.89921C6.02234 9.82116 5.76553 9.78152 5.50723 9.78177C4.12161 9.78177 2.99856 10.9043 2.99856 12.2891C2.99856 13.2683 3.55993 14.116 4.37861 14.529Z" fill="#EEEEEE"/>
<path id="Vector_2" d="M10.9998 6.24592C12.1655 7.07847 13.5929 7.56837 15.1347 7.56837V5.23405C14.2741 5.05083 13.5122 4.60132 12.9394 3.97609C11.9589 3.36455 11.2524 2.35565 11.0453 1.1748H8.88381V13.0196C8.87892 14.4004 7.75772 15.5185 6.37507 15.5185C5.5603 15.5185 4.83645 15.1303 4.37803 14.529C3.55941 14.116 2.99804 13.2682 2.99804 12.2892C2.99804 10.9045 4.1211 9.78183 5.50672 9.78183C5.7722 9.78183 6.02808 9.82315 6.2681 9.89927V7.53944C3.29251 7.60088 0.899414 10.031 0.899414 13.0196C0.899414 14.5115 1.49535 15.864 2.46256 16.8522C3.33512 17.4378 4.38552 17.7794 5.51564 17.7794C8.5445 17.7794 10.9999 15.3252 10.9999 12.2978V6.24592H10.9998Z" fill="#EEEEEE"/>
<path id="Vector_3" d="M15.1348 5.2343V4.60312C14.3588 4.60429 13.598 4.38707 12.9395 3.97627C13.5224 4.61408 14.2899 5.05386 15.1348 5.2343ZM11.0454 1.17505C11.0257 1.06219 11.0105 0.948592 11 0.834558V0.453125H8.01552V12.298C8.01075 13.6787 6.88962 14.7968 5.50684 14.7968C5.10088 14.7968 4.71759 14.7004 4.37815 14.5293C4.83658 15.1306 5.56042 15.5187 6.3752 15.5187C7.75772 15.5187 8.8791 14.4007 8.88394 13.0199V1.17505H11.0454ZM6.26835 7.53968V6.86775C6.01897 6.83368 5.76755 6.81658 5.51583 6.81671C2.48672 6.81671 0.03125 9.27081 0.03125 12.298C0.03125 14.1959 0.996293 15.8685 2.46275 16.8523C1.49554 15.8642 0.899602 14.5117 0.899602 13.0198C0.899602 10.0312 3.29264 7.60113 6.26835 7.53968Z" fill="#EEEEEE"/>
</g>
</g>
<defs>
<clipPath id="clip0_1706_332">
<rect width="15.9724" height="18.0938" fill="white" transform="translate(0.03125 0.453125)"/>
</clipPath>
</defs>
</svg>
