<svg width="24" height="25" viewBox="0 0 24 25" fill="none" xmlns="http://www.w3.org/2000/svg">
<path d="M14.9374 10.1694C14.9455 10.3368 14.8163 10.4791 14.6488 10.4872C14.4814 10.4953 14.3391 10.3661 14.331 10.1987C14.2808 9.16129 13.7989 8.66361 12.8028 8.61069C12.6354 8.6018 12.5069 8.45888 12.5158 8.29147C12.5247 8.12406 12.6676 7.99555 12.835 8.00445C14.1458 8.07408 14.8723 8.82437 14.9374 10.1694Z" fill="#EEEEEE"/>
<path d="M16.1832 11.0097C16.3508 11.0135 16.4897 10.8808 16.4935 10.7132C16.5205 9.52668 16.1652 8.52491 15.4269 7.72053C14.6872 6.91472 13.6671 6.46853 12.3758 6.37684C12.2086 6.36497 12.0634 6.49091 12.0515 6.65813C12.0397 6.82536 12.1656 6.97054 12.3328 6.98242C13.4766 7.06363 14.3508 7.44599 14.9796 8.13106C15.609 8.81673 15.9101 9.6657 15.8866 10.6994C15.8828 10.867 16.0156 11.0059 16.1832 11.0097Z" fill="#EEEEEE"/>
<path d="M18.0891 11.3271C18.0904 11.4947 17.9555 11.6316 17.7879 11.6329C17.6202 11.6341 17.4833 11.4993 17.4821 11.3316C17.4682 9.48439 16.9231 8.0485 15.8485 6.99786C14.7703 5.94698 13.4299 5.41596 11.8193 5.40566C11.6517 5.40458 11.5167 5.26781 11.5177 5.10017C11.5188 4.93253 11.6556 4.7975 11.8232 4.79857C13.5882 4.80986 15.0796 5.40074 16.2726 6.56344C17.4699 7.73405 18.0742 9.32572 18.0891 11.3271Z" fill="#EEEEEE"/>
<path d="M13.5357 14.0018C13.3088 14.2863 12.8802 14.2503 12.8802 14.2503C9.76115 13.4543 8.92557 10.2957 8.92557 10.2957C8.92557 10.2957 8.88955 9.87068 9.17408 9.64018L9.73594 9.19357C10.0169 8.97748 10.1933 8.45524 9.90881 7.94381C9.75034 7.65928 9.4334 7.15144 9.19929 6.8309C8.95078 6.49234 8.37452 5.80083 8.37092 5.79723C8.09359 5.46588 7.683 5.39024 7.25081 5.61354C7.25081 5.61354 7.2472 5.61715 7.2436 5.61715C6.83302 5.84765 6.45124 6.15739 6.09468 6.54997L6.08748 6.55717C5.82096 6.87772 5.66609 7.19466 5.63007 7.50441C5.62287 7.54042 5.61926 7.58724 5.62287 7.64127C5.61926 7.77813 5.64087 7.91139 5.68409 8.04465L5.6985 8.05546C5.83176 8.53447 6.17031 9.33044 6.90145 10.6594C7.37686 11.5202 7.86308 12.2406 8.3457 12.8456C8.59782 13.1662 8.88595 13.4939 9.2173 13.8289L9.34696 13.9585C9.68191 14.2899 10.0097 14.578 10.3302 14.8301C10.9353 15.3128 11.652 15.799 12.5164 16.2744C13.8454 17.0055 14.6414 17.3441 15.1204 17.4773L15.1312 17.4917C15.2645 17.535 15.3977 17.553 15.5346 17.553C15.5886 17.5566 15.6354 17.553 15.6714 17.5458C15.9812 17.5098 16.2981 17.3549 16.6187 17.0884L16.6259 17.0812C17.0184 16.7246 17.3282 16.3392 17.5587 15.9322C17.5587 15.9322 17.5623 15.9286 17.5623 15.925C17.7856 15.4928 17.71 15.0823 17.3786 14.8049C17.3786 14.8049 16.6835 14.2251 16.3449 13.9765C16.028 13.7424 15.5166 13.4291 15.232 13.267C14.7206 12.9825 14.1984 13.159 13.9823 13.4399L13.5357 14.0018Z" fill="#EEEEEE"/>
<path fill-rule="evenodd" clip-rule="evenodd" d="M12.4264 0.517227C17.7928 0.542439 20.2023 2.29283 20.8002 2.84028C22.7775 4.55827 23.876 8.3688 23.1376 14.3871C22.4881 19.7047 18.7791 20.648 17.5348 20.9645C17.413 20.9955 17.3147 21.0205 17.2453 21.043C16.9104 21.151 13.9462 21.893 10.0961 21.5688C9.67111 22.0622 9.10565 22.7105 8.69866 23.1499C8.57571 23.2824 8.46059 23.4132 8.35058 23.5382C7.79355 24.171 7.3674 24.6552 6.71776 24.4537C6.07307 24.2556 6.10909 23.276 6.10909 23.276L6.11269 20.8593H6.10909C0.476124 19.2746 0.558962 13.4363 0.623791 10.3173C0.685019 7.19827 1.29009 4.68432 3.00808 2.96634C6.09468 0.135453 12.4264 0.517227 12.4264 0.517227ZM16.8958 19.2811C17.9533 19.0357 20.9067 18.3503 21.4521 13.9549C22.0751 8.92705 21.2216 5.49469 19.5504 4.05764C19.0462 3.60023 16.8708 2.23521 12.3291 2.2136C12.3291 2.2136 6.95187 1.86064 4.34068 4.22331C2.88922 5.65676 2.3994 7.78893 2.34537 10.3929L2.33949 10.6582C2.27853 13.3211 2.17111 18.0144 6.77539 19.2926C6.77539 19.2926 6.75738 22.9842 6.75378 23.3084C6.75378 23.5353 6.78979 23.6902 6.91945 23.7226C7.0131 23.7478 7.15356 23.6974 7.27241 23.5785C8.03236 22.8114 10.4707 19.8724 10.4707 19.8724C13.741 20.0885 16.3413 19.4402 16.6223 19.3502C16.6869 19.3296 16.78 19.308 16.8958 19.2811Z" fill="#EEEEEE"/>
</svg>
